<svg width="375" height="356" viewBox="0 0 375 356" fill="none" xmlns="http://www.w3.org/2000/svg">
<g clip-path="url(#clip0_2_1389)">
<path d="M360.145 0.000349276H247.578C242.146 3.64691e-05 236.875 2.17286 232.633 6.16163C228.39 10.1504 225.428 15.7177 224.233 21.9484L167.356 318.587C166.736 321.823 166.725 325.179 167.324 328.42C167.924 331.661 169.119 334.709 170.826 337.349C172.533 339.99 174.71 342.159 177.206 343.706C179.701 345.252 182.454 346.138 185.271 346.301L300.991 353.005C307.188 353.364 313.284 351.06 318.141 346.522C322.999 341.985 326.287 335.525 327.391 328.346L359.657 118.62L362.057 119.426L368.233 79.6752L365.762 78.9491L374.768 20.4066C375.154 17.899 375.065 15.3222 374.507 12.8599C373.949 10.3975 372.935 8.11032 371.539 6.1613C370.143 4.21228 368.398 2.64945 366.429 1.58423C364.46 0.519009 362.316 -0.0223665 360.149 -0.00130005L360.145 0.000349276Z" fill="#3F3D56"/>
<path d="M262.395 6.3952H249.257C245.483 6.39525 241.823 7.91268 238.884 10.6956C235.946 13.4785 233.904 17.3596 233.1 21.6945L178.504 315.913C178.19 317.607 178.19 319.361 178.505 321.055C178.82 322.749 179.442 324.343 180.329 325.728C181.216 327.113 182.347 328.257 183.644 329.081C184.942 329.905 186.375 330.39 187.846 330.503L303.19 339.393C306.444 339.643 309.663 338.477 312.232 336.115C314.801 333.753 316.541 330.362 317.119 326.588L363.705 22.485C364.007 20.5167 363.937 18.4946 363.501 16.5614C363.066 14.6282 362.274 12.831 361.184 11.2966C360.093 9.7622 358.729 8.528 357.188 7.68111C355.647 6.83421 353.967 6.39525 352.266 6.3952H339.801C338.595 6.39516 337.422 6.86276 336.465 7.72562C335.507 8.58847 334.818 9.79845 334.504 11.1682C334.227 12.3779 333.619 13.4464 332.773 14.2083C331.927 14.9702 330.891 15.3828 329.826 15.3824H270.651C268.565 15.3823 266.556 14.4567 265.026 12.7905C263.495 11.1244 262.556 8.84043 262.395 6.3952Z" fill="white"/>
<path d="M326.158 212.079C326.382 212.088 326.602 212.002 326.776 211.837C326.951 211.671 327.07 211.437 327.11 211.178L352.618 45.6504C352.642 45.493 352.637 45.3314 352.603 45.1765C352.57 45.0215 352.508 44.877 352.423 44.7526C352.338 44.6293 352.231 44.5294 352.11 44.4601C351.988 44.3908 351.856 44.3538 351.721 44.3516L235.672 42.7399H235.661C235.45 42.742 235.246 42.8282 235.083 42.9843C234.919 43.1403 234.805 43.3571 234.76 43.5991L204.69 203.754C204.661 203.91 204.66 204.072 204.689 204.229C204.718 204.385 204.775 204.532 204.857 204.661C204.938 204.788 205.041 204.892 205.16 204.967C205.279 205.041 205.411 205.084 205.546 205.092L326.158 212.079Z" fill="#E6E6E6"/>
<path d="M225.451 222.781C225.345 222.781 225.243 222.823 225.16 222.901C225.077 222.978 225.019 223.086 224.995 223.206L223.909 228.683C223.893 228.76 223.892 228.841 223.906 228.919C223.919 228.996 223.947 229.07 223.987 229.134C224.027 229.198 224.078 229.251 224.138 229.29C224.197 229.328 224.262 229.351 224.33 229.357L285.723 234.487C285.837 234.496 285.949 234.456 286.04 234.374C286.13 234.292 286.193 234.175 286.215 234.044L287.261 227.707C287.273 227.63 287.272 227.551 287.256 227.475C287.241 227.399 287.212 227.327 287.171 227.266C287.13 227.204 287.078 227.153 287.019 227.116C286.961 227.08 286.896 227.058 286.829 227.054L225.479 222.782L225.451 222.781Z" fill="#E6E6E6"/>
<path d="M300.04 254.83C300.15 254.84 300.261 254.804 300.351 254.728C300.441 254.651 300.505 254.54 300.531 254.413L301.862 248.063C301.878 247.986 301.88 247.904 301.867 247.826C301.854 247.747 301.826 247.673 301.786 247.608C301.746 247.543 301.694 247.489 301.635 247.451C301.575 247.412 301.509 247.389 301.441 247.383L223.038 240.935C222.932 240.925 222.825 240.959 222.738 241.031C222.65 241.102 222.586 241.207 222.557 241.328L221.174 246.815C221.154 246.893 221.15 246.976 221.161 247.056C221.172 247.137 221.198 247.214 221.237 247.282C221.276 247.349 221.328 247.405 221.388 247.446C221.448 247.487 221.516 247.512 221.585 247.519L300.04 254.83Z" fill="#E6E6E6"/>
<path d="M295.829 275.183C295.94 275.193 296.05 275.157 296.14 275.08C296.23 275.004 296.294 274.893 296.321 274.766L297.652 268.416C297.668 268.338 297.67 268.257 297.656 268.179C297.643 268.1 297.616 268.026 297.576 267.961C297.535 267.896 297.484 267.842 297.424 267.803C297.365 267.765 297.298 267.741 297.23 267.736L218.827 261.288C218.721 261.278 218.615 261.312 218.527 261.383C218.44 261.455 218.376 261.56 218.346 261.68L216.964 267.167C216.944 267.246 216.939 267.329 216.95 267.409C216.961 267.49 216.987 267.567 217.027 267.634C217.066 267.702 217.118 267.758 217.178 267.799C217.238 267.84 217.305 267.865 217.374 267.872L295.829 275.183Z" fill="#E6E6E6"/>
<path d="M159.894 346.835C159.894 351.438 124.056 351.928 79.9468 355.17C35.8773 358.408 0 351.438 0 346.835C0 342.231 36.0448 332.969 79.9468 338.499C124.056 344.056 159.894 342.231 159.894 346.835Z" fill="#E6E6E6"/>
<path d="M259.72 309.976C259.832 309.99 259.944 309.955 260.035 309.879C260.127 309.803 260.192 309.69 260.218 309.561L263.031 296.332C263.047 296.254 263.049 296.174 263.037 296.095C263.024 296.017 262.997 295.943 262.958 295.878C262.918 295.813 262.867 295.759 262.808 295.719C262.749 295.68 262.684 295.656 262.616 295.649L214.469 290.888C214.357 290.879 214.245 290.917 214.154 290.995C214.064 291.074 213.999 291.188 213.973 291.316L211.574 304.014C211.559 304.09 211.559 304.169 211.572 304.245C211.586 304.322 211.613 304.394 211.652 304.457C211.691 304.52 211.741 304.573 211.799 304.612C211.857 304.65 211.921 304.674 211.987 304.681L259.72 309.976Z" fill="#63FFF8"/>
<path d="M65.3131 256.065C65.9194 255.576 66.4272 254.937 66.8007 254.193C67.1742 253.449 67.4043 252.617 67.4749 251.757C67.5455 250.897 67.4547 250.029 67.2091 249.215C66.9635 248.4 66.5689 247.659 66.0532 247.043L68.0027 195.876L58.0777 197.186L58.6545 247.235C57.8314 248.321 57.3761 249.725 57.3747 251.18C57.3734 252.635 57.8263 254.04 58.6474 255.129C59.4685 256.217 60.6008 256.913 61.8295 257.086C63.0582 257.258 64.298 256.894 65.3136 256.063L65.3131 256.065Z" fill="#A0616A"/>
<path d="M83.4195 342.679L89.0686 343.847L94.6516 318.783L87.2501 317.06L83.4195 342.679Z" fill="#A0616A"/>
<path d="M99.0423 352.266L81.2887 348.596L82.4945 340.531L93.3888 342.783C95.208 343.16 96.8257 344.37 97.8859 346.148C98.9461 347.927 99.3621 350.128 99.0422 352.267L99.0423 352.266Z" fill="#2F2E41"/>
<path d="M67.9147 346.004H73.6503L76.3787 319.992H67.9138L67.9147 346.004Z" fill="#A0616A"/>
<path d="M84.7097 352.267L66.6838 352.268L66.6834 344.079L77.7447 344.078C79.5918 344.078 81.3634 344.941 82.6695 346.477C83.9757 348.012 84.7096 350.095 84.7097 352.267Z" fill="#2F2E41"/>
<path d="M91.8437 336.68C91.7543 336.68 91.6649 336.674 91.5761 336.661L84.8253 336.009C84.518 335.966 84.2212 335.851 83.953 335.669C83.6848 335.487 83.4507 335.244 83.2651 334.953C83.0794 334.661 82.946 334.329 82.873 333.975C82.8 333.622 82.7889 333.254 82.8403 332.896L89.542 294.016L85.3315 267.901C85.2972 267.689 85.1988 267.499 85.0544 267.365C84.91 267.232 84.7295 267.164 84.546 267.175C84.3625 267.185 84.1885 267.274 84.0561 267.423C83.9237 267.573 83.8418 267.774 83.8256 267.989L77.6217 334.343C77.5638 335.042 77.2773 335.688 76.8225 336.143C76.3678 336.598 75.7804 336.828 75.1843 336.784L68.8242 336.506C68.2669 336.459 67.7433 336.175 67.3524 335.705C66.9614 335.236 66.7301 334.615 66.7021 333.958L67.2102 253.775L100.183 248.929L102.487 290.757L102.477 290.802L94.0608 334.629C93.9396 335.213 93.6554 335.733 93.2535 336.105C92.8515 336.477 92.3551 336.679 91.8437 336.68Z" fill="#2F2E41"/>
<path d="M78.0839 162.722C84.4299 162.722 89.5743 156.673 89.5743 149.211C89.5743 141.75 84.4299 135.701 78.0839 135.701C71.738 135.701 66.5936 141.75 66.5936 149.211C66.5936 156.673 71.738 162.722 78.0839 162.722Z" fill="#A0616A"/>
<path d="M88.9104 259.877C87.1133 259.889 85.3508 259.296 83.8312 258.168C78.264 254.078 71.9432 255.703 68.6703 257.037C68.3454 257.171 67.9991 257.216 67.6571 257.17C67.3152 257.125 66.9865 256.988 66.6956 256.772C66.408 256.56 66.1651 256.274 65.9849 255.935C65.8047 255.597 65.692 255.215 65.6551 254.818L59.7039 192.316C58.7065 181.843 64.0715 171.998 72.4606 168.904C72.776 168.788 73.0964 168.678 73.422 168.574C76.0326 167.742 78.7666 167.593 81.4316 168.137C84.0966 168.681 86.6279 169.905 88.8473 171.723C91.1081 173.56 92.9988 175.958 94.3863 178.748C95.7739 181.538 96.6246 184.651 96.8785 187.869L101.889 250.791C101.924 251.198 101.877 251.609 101.753 251.992C101.629 252.374 101.431 252.717 101.175 252.995C99.4179 254.905 94.3195 259.876 88.9104 259.877Z" fill="#63FFF8"/>
<path d="M70.7863 205.719L57.3596 203.983C56.9775 203.934 56.609 203.788 56.2791 203.556C55.9492 203.324 55.6657 203.011 55.4479 202.639C55.2302 202.266 55.0832 201.843 55.0171 201.398C54.951 200.953 54.9673 200.496 55.0649 200.059L58.4828 184.741C58.5835 183.593 58.8767 182.48 59.3455 181.466C59.8143 180.452 60.4493 179.557 61.2139 178.833C61.9785 178.11 62.8576 177.571 63.8002 177.249C64.7428 176.927 65.7304 176.828 66.7058 176.958C67.6812 177.087 68.6251 177.443 69.4829 178.004C70.3408 178.565 71.0956 179.32 71.7037 180.226C72.3118 181.132 72.7612 182.171 73.0258 183.282C73.2905 184.394 73.3652 185.556 73.2456 186.701L73.7532 202.475C73.7678 202.926 73.6993 203.376 73.5526 203.794C73.4058 204.212 73.1842 204.588 72.9028 204.896C72.6214 205.204 72.2868 205.437 71.9219 205.579C71.557 205.721 71.1703 205.769 70.7881 205.72L70.7863 205.719Z" fill="#63FFF8"/>
<path d="M101.835 253.874C102.386 253.303 102.825 252.597 103.119 251.805C103.413 251.014 103.556 250.156 103.538 249.292C103.52 248.429 103.341 247.58 103.014 246.807C102.687 246.033 102.22 245.353 101.645 244.815L98.3358 193.745L88.6101 196.319L94.3176 246.054C93.6118 247.249 93.3036 248.707 93.4514 250.152C93.5992 251.596 94.1927 252.927 95.1194 253.891C96.046 254.855 97.2414 255.386 98.4789 255.383C99.7163 255.38 100.91 254.843 101.833 253.874H101.835Z" fill="#A0616A"/>
<path d="M84.882 202.509C84.6005 202.201 84.3788 201.825 84.232 201.408C84.0852 200.99 84.0168 200.54 84.0315 200.088L84.539 184.315C84.4296 183.175 84.5121 182.021 84.782 180.919C85.0518 179.817 85.5036 178.788 86.1117 177.891C86.7197 176.994 87.472 176.247 88.3257 175.691C89.1794 175.136 90.1177 174.785 91.087 174.656C92.0563 174.527 93.0377 174.624 93.9752 174.941C94.9126 175.259 95.7877 175.79 96.5506 176.505C97.3134 177.22 97.949 178.104 98.421 179.108C98.8931 180.112 99.1924 181.215 99.3019 182.355L102.72 197.672C102.817 198.11 102.834 198.566 102.768 199.012C102.701 199.457 102.555 199.88 102.337 200.252C102.119 200.625 101.835 200.938 101.506 201.17C101.176 201.402 100.807 201.547 100.425 201.597L86.9984 203.333C86.6162 203.382 86.2294 203.334 85.8645 203.192C85.4995 203.049 85.165 202.816 84.8838 202.508L84.882 202.509Z" fill="#63FFF8"/>
<path d="M77.4004 163.23C77.1957 163.23 76.9916 163.203 76.7923 163.147L76.7338 163.131C66.6315 161.316 64.3985 154.433 63.9087 151.56C63.4016 148.585 63.9789 145.714 65.2841 144.598C64.5726 141.958 64.6867 139.614 65.6242 137.633C67.2616 134.179 70.8083 133.013 71.285 132.867C74.1191 130.409 77.5099 132.05 78.127 132.383C83.6095 129.998 85.7058 131.983 86.0838 132.426C88.5343 132.944 90.0281 134.057 90.524 135.735C91.4554 138.888 88.51 142.809 88.3841 142.975L88.3186 143.061L83.9304 143.307C83.514 143.33 83.1064 143.456 82.7341 143.677C82.3618 143.897 82.0331 144.207 81.7692 144.587C81.5054 144.966 81.3124 145.407 81.2026 145.879C81.0929 146.352 81.0689 146.847 81.1323 147.332C81.251 147.957 81.401 148.573 81.5814 149.177C82.33 151.931 82.8913 154.283 82.1681 155.178C82.004 155.351 81.8018 155.466 81.5846 155.51C81.3675 155.555 81.1441 155.526 80.94 155.428C80.2537 155.213 79.7882 155.258 79.5562 155.563C79.196 156.035 79.3059 157.232 79.8659 158.932C80.0416 159.47 80.0889 160.054 80.0026 160.621C79.9164 161.187 79.6999 161.716 79.3765 162.148C79.1331 162.486 78.8303 162.758 78.489 162.944C78.1477 163.131 77.776 163.229 77.3995 163.23H77.4004Z" fill="#2F2E41"/>
</g>
<defs>
<clipPath id="clip0_2_1389">
<rect width="375" height="356" fill="white"/>
</clipPath>
</defs>
</svg>
